P3
15 15
255
0 0 0
18 0 0
36 0 0
54 0 0
73 0 0
91 0 0
109 0 0
127 0 0
146 0 0
164 0 0
182 0 0
201 0 0
219 0 0
237 0 0
255 0 0
0 18 0
18 18 0
36 18 0
54 18 0
73 18 0
91 18 0
109 18 0
127 18 0
146 18 0
164 18 0
182 18 0
201 18 0
219 18 0
237 18 0
255 18 0
0 36 0
18 36 0
36 36 0
54 36 0
73 36 0
91 36 0
109 36 0
127 36 0
146 36 0
164 36 0
182 36 0
201 36 0
219 36 0
237 36 0
255 36 0
0 54 0
18 54 0
36 54 0
54 54 0
73 54 0
91 54 0
109 54 0
127 54 0
146 54 0
164 54 0
182 54 0
201 54 0
219 54 0
237 54 0
255 54 0
0 73 0
18 73 0
36 73 0
54 73 0
73 73 0
91 73 0
109 73 0
127 73 0
146 73 0
164 73 0
182 73 0
201 73 0
219 73 0
237 73 0
255 73 0
0 91 0
18 91 0
36 91 0
54 91 0
73 91 0
91 91 0
109 91 0
127 91 0
146 91 0
164 91 0
182 91 0
201 91 0
219 91 0
237 91 0
255 91 0
0 109 0
18 109 0
36 109 0
54 109 0
73 109 0
91 109 0
109 109 0
127 109 0
146 109 0
164 109 0
182 109 0
201 109 0
219 109 0
237 109 0
255 109 0
0 127 0
18 127 0
36 127 0
54 127 0
73 127 0
91 127 0
109 127 0
127 127 0
146 127 0
164 127 0
182 127 0
201 127 0
219 127 0
237 127 0
255 127 0
0 146 0
18 146 0
36 146 0
54 146 0
73 146 0
91 146 0
109 146 0
127 146 0
146 146 0
164 146 0
182 146 0
201 146 0
219 146 0
237 146 0
255 146 0
0 164 0
18 164 0
36 164 0
54 164 0
73 164 0
91 164 0
109 164 0
127 164 0
146 164 0
164 164 0
182 164 0
201 164 0
219 164 0
237 164 0
255 164 0
0 182 0
18 182 0
36 182 0
54 182 0
73 182 0
91 182 0
109 182 0
127 182 0
146 182 0
164 182 0
182 182 0
201 182 0
219 182 0
237 182 0
255 182 0
0 201 0
18 201 0
36 201 0
54 201 0
73 201 0
91 201 0
109 201 0
127 201 0
146 201 0
164 201 0
182 201 0
201 201 0
219 201 0
237 201 0
255 201 0
0 219 0
18 219 0
36 219 0
54 219 0
73 219 0
91 219 0
109 219 0
127 219 0
146 219 0
164 219 0
182 219 0
201 219 0
219 219 0
237 219 0
255 219 0
0 237 0
18 237 0
36 237 0
54 237 0
73 237 0
91 237 0
109 237 0
127 237 0
146 237 0
164 237 0
182 237 0
201 237 0
219 237 0
237 237 0
255 237 0
0 255 0
18 255 0
36 255 0
54 255 0
73 255 0
91 255 0
109 255 0
127 255 0
146 255 0
164 255 0
182 255 0
201 255 0
219 255 0
237 255 0
255 255 0
